{
  "accessors": [
    {
      "bufferView": 2,
      "componentType": 5126,
      "count": 85,
      "max": [
        -0.004520729184150696,
        0.025379925966262817,
        0.21964800357818604
      ],
      "min": [
        -0.22142109274864197,
        -0.007377266883850098,
        -0.23032712936401367
      ],
      "type": "VEC3"
    },
    {
      "bufferView": 2,
      "byteOffset": 1020,
      "componentType": 5126,
      "count": 85,
      "max": [
        1.0,
        1.0,
        1.0
      ],
      "min": [
        -1.0,
        -1.0,
        -1.0
      ],
      "type": "VEC3"
    },
    {
      "bufferView": 3,
      "componentType": 5126,
      "count": 85,
      "max": [
        0.9780817627906799,
        1.0,
        1.0,
        1.0
      ],
      "min": [
        -0.38231220841407776,
        -1.0,
        -1.0,
        1.0
      ],
      "type": "VEC4"
    },
    {
      "bufferView": 1,
      "componentType": 5126,
      "count": 85,
      "max": [
        0.5117653608322144,
        0.9901905059814453
      ],
      "min": [
        0.3232197165489197,
        0.21648281812667847
      ],
      "type": "VEC2"
    },
    {
      "bufferView": 0,
      "componentType": 5125,
      "count": 252,
      "type": "SCALAR"
    },
    {
      "bufferView": 2,
      "byteOffset": 2040,
      "componentType": 5126,
      "count": 85,
      "max": [
        0.22190791368484497,
        0.025379925966262817,
        0.21964800357818604
      ],
      "min": [
        0.005007565021514893,
        -0.007377266883850098,
        -0.23032712936401367
      ],
      "type": "VEC3"
    },
    {
      "bufferView": 2,
      "byteOffset": 3060,
      "componentType": 5126,
      "count": 85,
      "max": [
        1.0,
        1.0,
        1.0
      ],
      "min": [
        -1.0,
        -1.0,
        -1.0
      ],
      "type": "VEC3"
    },
    {
      "bufferView": 3,
      "byteOffset": 1360,
      "componentType": 5126,
      "count": 85,
      "max": [
        0.3823133111000061,
        1.0,
        1.0,
        -1.0
      ],
      "min": [
        -0.9797844290733337,
        -1.0,
        -1.0,
        -1.0
      ],
      "type": "VEC4"
    },
    {
      "bufferView": 1,
      "byteOffset": 680,
      "componentType": 5126,
      "count": 85,
      "max": [
        0.7698590159416199,
        0.9862286448478699
      ],
      "min": [
        0.4539576768875122,
        0.6354190111160278
      ],
      "type": "VEC2"
    },
    {
      "bufferView": 0,
      "byteOffset": 1008,
      "componentType": 5125,
      "count": 252,
      "type": "SCALAR"
    },
    {
      "bufferView": 2,
      "byteOffset": 4080,
      "componentType": 5126,
      "count": 217,
      "max": [
        0.28384310007095337,
        0.2807028591632843,
        0.06563138961791992
      ],
      "min": [
        -0.2838428020477295,
        -0.08280692249536514,
        -0.06378471851348877
      ],
      "type": "VEC3"
    },
    {
      "bufferView": 2,
      "byteOffset": 6684,
      "componentType": 5126,
      "count": 217,
      "max": [
        1.0,
        1.0,
        1.0
      ],
      "min": [
        -1.0,
        -1.0,
        -1.0
      ],
      "type": "VEC3"
    },
    {
      "bufferView": 3,
      "byteOffset": 2720,
      "componentType": 5126,
      "count": 217,
      "max": [
        1.0,
        1.0,
        1.0,
        1.0
      ],
      "min": [
        -1.0,
        -0.9961869120597839,
        -1.0,
        1.0
      ],
      "type": "VEC4"
    },
    {
      "bufferView": 1,
      "byteOffset": 1360,
      "componentType": 5126,
      "count": 217,
      "max": [
        0.9333542585372925,
        0.9946717023849487
      ],
      "min": [
        0.14551138877868652,
        0.008011043071746826
      ],
      "type": "VEC2"
    },
    {
      "bufferView": 0,
      "byteOffset": 2016,
      "componentType": 5125,
      "count": 636,
      "type": "SCALAR"
    },
    {
      "bufferView": 2,
      "byteOffset": 9288,
      "componentType": 5126,
      "count": 989,
      "max": [
        0.33687716722488403,
        0.1796332448720932,
        0.15538230538368225
      ],
      "min": [
        -0.9615526795387268,
        -0.27681422233581543,
        -1.6601592302322388
      ],
      "type": "VEC3"
    },
    {
      "bufferView": 2,
      "byteOffset": 21156,
      "componentType": 5126,
      "count": 989,
      "max": [
        1.0,
        1.0,
        1.0
      ],
      "min": [
        -1.0,
        -1.0,
        -1.0
      ],
      "type": "VEC3"
    },
    {
      "bufferView": 3,
      "byteOffset": 6192,
      "componentType": 5126,
      "count": 989,
      "max": [
        1.0,
        1.0,
        1.0,
        1.0
      ],
      "min": [
        -1.0,
        -1.0,
        -1.0,
        -1.0
      ],
      "type": "VEC4"
    },
    {
      "bufferView": 1,
      "byteOffset": 3096,
      "componentType": 5126,
      "count": 989,
      "max": [
        0.9997819662094116,
        0.999253511428833
      ],
      "min": [
        -5.430719465948641e-05,
        0.00021317502250894904
      ],
      "type": "VEC2"
    },
    {
      "bufferView": 0,
      "byteOffset": 4560,
      "componentType": 5125,
      "count": 2454,
      "type": "SCALAR"
    },
    {
      "bufferView": 2,
      "byteOffset": 33024,
      "componentType": 5126,
      "count": 231,
      "max": [
        0.24241015315055847,
        -0.16231340169906616,
        0.02238762192428112
      ],
      "min": [
        -0.8671327829360962,
        -0.19294536113739014,
        -1.0677673816680908
      ],
      "type": "VEC3"
    },
    {
      "bufferView": 2,
      "byteOffset": 35796,
      "componentType": 5126,
      "count": 231,
      "max": [
        1.0,
        1.0,
        1.0
      ],
      "min": [
        -1.0,
        -1.0,
        -1.0
      ],
      "type": "VEC3"
    },
    {
      "bufferView": 3,
      "byteOffset": 22016,
      "componentType": 5126,
      "count": 231,
      "max": [
        1.0,
        1.0,
        1.0,
        1.0
      ],
      "min": [
        -6.46427579340525e-05,
        -4.3196290789637715e-05,
        -1.0,
        -1.0
      ],
      "type": "VEC4"
    },
    {
      "bufferView": 1,
      "byteOffset": 11008,
      "componentType": 5126,
      "count": 231,
      "max": [
        0.9333778023719788,
        0.9993370175361633
      ],
      "min": [
        0.20537537336349487,
        0.08577673882246017
      ],
      "type": "VEC2"
    },
    {
      "bufferView": 0,
      "byteOffset": 14376,
      "componentType": 5125,
      "count": 546,
      "type": "SCALAR"
    },
    {
      "bufferView": 2,
      "byteOffset": 38568,
      "componentType": 5126,
      "count": 217,
      "max": [
        0.28384310007095337,
        0.2807028591632843,
        0.06563138961791992
      ],
      "min": [
        -0.2838428020477295,
        -0.08280692249536514,
        -0.06378471851348877
      ],
      "type": "VEC3"
    },
    {
      "bufferView": 2,
      "byteOffset": 41172,
      "componentType": 5126,
      "count": 217,
      "max": [
        1.0,
        1.0,
        1.0
      ],
      "min": [
        -1.0,
        -1.0,
        -1.0
      ],
      "type": "VEC3"
    },
    {
      "bufferView": 3,
      "byteOffset": 25712,
      "componentType": 5126,
      "count": 217,
      "max": [
        1.0,
        1.0,
        1.0,
        1.0
      ],
      "min": [
        -1.0,
        -0.9961869120597839,
        -1.0,
        1.0
      ],
      "type": "VEC4"
    },
    {
      "bufferView": 1,
      "byteOffset": 12856,
      "componentType": 5126,
      "count": 217,
      "max": [
        0.9333542585372925,
        0.9946717023849487
      ],
      "min": [
        0.14551138877868652,
        0.008011043071746826
      ],
      "type": "VEC2"
    },
    {
      "bufferView": 0,
      "byteOffset": 16560,
      "componentType": 5125,
      "count": 636,
      "type": "SCALAR"
    },
    {
      "bufferView": 2,
      "byteOffset": 43776,
      "componentType": 5126,
      "count": 217,
      "max": [
        0.28384310007095337,
        0.2807028591632843,
        0.06563138961791992
      ],
      "min": [
        -0.2838428020477295,
        -0.08280692249536514,
        -0.06378471851348877
      ],
      "type": "VEC3"
    },
    {
      "bufferView": 2,
      "byteOffset": 46380,
      "componentType": 5126,
      "count": 217,
      "max": [
        1.0,
        1.0,
        1.0
      ],
      "min": [
        -1.0,
        -1.0,
        -1.0
      ],
      "type": "VEC3"
    },
    {
      "bufferView": 3,
      "byteOffset": 29184,
      "componentType": 5126,
      "count": 217,
      "max": [
        1.0,
        1.0,
        1.0,
        1.0
      ],
      "min": [
        -1.0,
        -0.9961869120597839,
        -1.0,
        1.0
      ],
      "type": "VEC4"
    },
    {
      "bufferView": 1,
      "byteOffset": 14592,
      "componentType": 5126,
      "count": 217,
      "max": [
        0.9333542585372925,
        0.9946717023849487
      ],
      "min": [
        0.14551138877868652,
        0.008011043071746826
      ],
      "type": "VEC2"
    },
    {
      "bufferView": 0,
      "byteOffset": 19104,
      "componentType": 5125,
      "count": 636,
      "type": "SCALAR"
    },
    {
      "bufferView": 2,
      "byteOffset": 48984,
      "componentType": 5126,
      "count": 12,
      "max": [
        0.22830891609191895,
        -0.18225502967834473,
        0.008696675300598145
      ],
      "min": [
        -0.852695882320404,
        -0.1822550743818283,
        -1.0540761947631836
      ],
      "type": "VEC3"
    },
    {
      "bufferView": 2,
      "byteOffset": 49128,
      "componentType": 5126,
      "count": 12,
      "max": [
        0.0,
        -1.0,
        -3.8475295838225065e-08
      ],
      "min": [
        0.0,
        -1.0,
        -4.473564629847715e-08
      ],
      "type": "VEC3"
    },
    {
      "bufferView": 3,
      "byteOffset": 32656,
      "componentType": 5126,
      "count": 12,
      "max": [
        1.0,
        0.0,
        0.0,
        1.0
      ],
      "min": [
        1.0,
        0.0,
        0.0,
        1.0
      ],
      "type": "VEC4"
    },
    {
      "bufferView": 1,
      "byteOffset": 16328,
      "componentType": 5126,
      "count": 12,
      "max": [
        0.6026535630226135,
        0.38062334060668945
      ],
      "min": [
        0.3838704824447632,
        0.18656376004219055
      ],
      "type": "VEC2"
    },
    {
      "bufferView": 0,
      "byteOffset": 21648,
      "componentType": 5125,
      "count": 18,
      "type": "SCALAR"
    }
  ],
  "asset": {
    "extras": {
      "author": "IvanovichRU (https://sketchfab.com/IvanovichRU)",
      "license": "CC-BY-NC-4.0 (http://creativecommons.org/licenses/by-nc/4.0/)",
      "source": "https://sketchfab.com/3d-models/old-china-cabinet-a6448e3833bf4ec68c0a919ece796ce2",
      "title": "Old China Cabinet"
    },
    "generator": "Sketchfab-10.89.0",
    "version": "2.0"
  },
  "bufferViews": [
    {
      "buffer": 0,
      "byteLength": 21720,
      "name": "floatBufferViews",
      "target": 34963
    },
    {
      "buffer": 0,
      "byteLength": 16424,
      "byteOffset": 21720,
      "byteStride": 8,
      "name": "floatBufferViews",
      "target": 34962
    },
    {
      "buffer": 0,
      "byteLength": 49272,
      "byteOffset": 38144,
      "byteStride": 12,
      "name": "floatBufferViews",
      "target": 34962
    },
    {
      "buffer": 0,
      "byteLength": 32848,
      "byteOffset": 87416,
      "byteStride": 16,
      "name": "floatBufferViews",
      "target": 34962
    }
  ],
  "buffers": [
    {
      "byteLength": 120264,
      "uri": "scene.bin"
    }
  ],
  "extensionsUsed": [
    "KHR_materials_transmission"
  ],
  "images": [
    {
      "uri": "textures/Scene_-_Root_baseColor.png"
    },
    {
      "uri": "textures/Scene_-_Root_metallicRoughness.png"
    },
    {
      "uri": "textures/Scene_-_Root_normal.png"
    },
    {
      "uri": "textures/Scene_-_Root_transmission.png"
    }
  ],
  "materials": [
    {
      "alphaMode": "BLEND",
      "doubleSided": true,
      "extensions": {
        "KHR_materials_transmission": {
          "transmissionFactor": 1.0,
          "transmissionTexture": {
            "index": 3
          }
        }
      },
      "name": "Scene_-_Root",
      "normalTexture": {
        "index": 2
      },
      "pbrMetallicRoughness": {
        "baseColorFactor": [
          0.8761619255669494,
          1.0,
          0.8193024440314856,
          1.0
        ],
        "baseColorTexture": {
          "index": 0
        },
        "metallicRoughnessTexture": {
          "index": 1
        }
      }
    }
  ],
  "meshes": [
    {
      "name": "Right Cabinet - Low Poly__0",
      "primitives": [
        {
          "attributes": {
            "NORMAL": 1,
            "POSITION": 0,
            "TANGENT": 2,
            "TEXCOORD_0": 3
          },
          "indices": 4,
          "material": 0,
          "mode": 4
        }
      ]
    },
    {
      "name": "Left Cabinet - Low Poly__0",
      "primitives": [
        {
          "attributes": {
            "NORMAL": 6,
            "POSITION": 5,
            "TANGENT": 7,
            "TEXCOORD_0": 8
          },
          "indices": 9,
          "material": 0,
          "mode": 4
        }
      ]
    },
    {
      "name": "Bottom Drawer - Low Poly__0",
      "primitives": [
        {
          "attributes": {
            "NORMAL": 11,
            "POSITION": 10,
            "TANGENT": 12,
            "TEXCOORD_0": 13
          },
          "indices": 14,
          "material": 0,
          "mode": 4
        }
      ]
    },
    {
      "name": "Main Body - Low Poly__0",
      "primitives": [
        {
          "attributes": {
            "NORMAL": 16,
            "POSITION": 15,
            "TANGENT": 17,
            "TEXCOORD_0": 18
          },
          "indices": 19,
          "material": 0,
          "mode": 4
        }
      ]
    },
    {
      "name": "Glass Front - Low Poly__0",
      "primitives": [
        {
          "attributes": {
            "NORMAL": 21,
            "POSITION": 20,
            "TANGENT": 22,
            "TEXCOORD_0": 23
          },
          "indices": 24,
          "material": 0,
          "mode": 4
        }
      ]
    },
    {
      "name": "Middle Drawer - Low Poly__0",
      "primitives": [
        {
          "attributes": {
            "NORMAL": 26,
            "POSITION": 25,
            "TANGENT": 27,
            "TEXCOORD_0": 28
          },
          "indices": 29,
          "material": 0,
          "mode": 4
        }
      ]
    },
    {
      "name": "Top Drawer - Low Poly__0",
      "primitives": [
        {
          "attributes": {
            "NORMAL": 31,
            "POSITION": 30,
            "TANGENT": 32,
            "TEXCOORD_0": 33
          },
          "indices": 34,
          "material": 0,
          "mode": 4
        }
      ]
    },
    {
      "name": "Glass Front - Low Poly.001__0",
      "primitives": [
        {
          "attributes": {
            "NORMAL": 36,
            "POSITION": 35,
            "TANGENT": 37,
            "TEXCOORD_0": 38
          },
          "indices": 39,
          "material": 0,
          "mode": 4
        }
      ]
    }
  ],
  "nodes": [
    {
      "children": [
        1
      ],
      "matrix": [
        0.011111111380159855,
        0.0,
        0.0,
        0.0,
        0.0,
        2.4671623366856143e-18,
        -0.011111111380159855,
        0.0,
        0.0,
        0.011111111380159855,
        2.4671623366856143e-18,
        0.0,
        0.0,
        0.0,
        0.0,
        1.0
      ],
      "name": "Sketchfab_model"
    },
    {
      "children": [
        2
      ],
      "matrix": [
        1.0,
        0.0,
        0.0,
        0.0,
        0.0,
        0.0,
        1.0,
        0.0,
        0.0,
        -1.0,
        0.0,
        0.0,
        0.0,
        0.0,
        0.0,
        1.0
      ],
      "name": "061cfbc5847640d3936d5cb0c738d510.fbx"
    },
    {
      "children": [
        3,
        5,
        7,
        9,
        11,
        13,
        15,
        17
      ],
      "name": "RootNode"
    },
    {
      "children": [
        4
      ],
      "matrix": [
        100.0,
        0.0,
        0.0,
        0.0,
        0.0,
        -1.629206793918314e-05,
        -99.99999999999868,
        0.0,
        0.0,
        99.99999999999868,
        -1.629206793918314e-05,
        0.0,
        53.6600341796875,
        31.92232894897461,
        19.353116989135742,
        1.0
      ],
      "name": "Right Cabinet - Low Poly"
    },
    {
      "mesh": 0,
      "name": "Right Cabinet - Low Poly__0"
    },
    {
      "children": [
        6
      ],
      "matrix": [
        100.0,
        0.0,
        0.0,
        0.0,
        -0.0,
        -1.629206793918314e-05,
        -99.99999999999868,
        0.0,
        0.0,
        99.99999999999868,
        -1.629206793918314e-05,
        0.0,
        -53.698204040527344,
        31.92232894897461,
        19.353116989135742,
        1.0
      ],
      "name": "Left Cabinet - Low Poly"
    },
    {
      "mesh": 1,
      "name": "Left Cabinet - Low Poly__0"
    },
    {
      "children": [
        8
      ],
      "matrix": [
        100.0,
        0.0,
        0.0,
        0.0,
        -0.0,
        -1.629206793918314e-05,
        -99.99999999999868,
        0.0,
        0.0,
        99.99999999999868,
        -1.629206793918314e-05,
        0.0,
        -1.7881393432617188e-05,
        15.218198776245117,
        11.77334976196289,
        1.0
      ],
      "name": "Bottom Drawer - Low Poly"
    },
    {
      "mesh": 2,
      "name": "Bottom Drawer - Low Poly__0"
    },
    {
      "children": [
        10
      ],
      "matrix": [
        100.0,
        0.0,
        0.0,
        0.0,
        0.0,
        -1.629206793918314e-05,
        -99.99999999999868,
        0.0,
        0.0,
        99.99999999999868,
        -1.629206793918314e-05,
        0.0,
        31.22449493408203,
        168.46705627441406,
        2.263503847643733e-05,
        1.0
      ],
      "name": "Main Body - Low Poly"
    },
    {
      "mesh": 3,
      "name": "Main Body - Low Poly__0"
    },
    {
      "children": [
        12
      ],
      "matrix": [
        100.0,
        0.0,
        0.0,
        0.0,
        0.0,
        -1.629206793918314e-05,
        -99.99999999999868,
        0.0,
        0.0,
        99.99999999999868,
        -1.629206793918314e-05,
        0.0,
        31.22449493408203,
        168.46705627441406,
        2.263503847643733e-05,
        1.0
      ],
      "name": "Glass Front - Low Poly"
    },
    {
      "mesh": 4,
      "name": "Glass Front - Low Poly__0"
    },
    {
      "children": [
        14
      ],
      "matrix": [
        100.0,
        0.0,
        0.0,
        0.0,
        -0.0,
        -1.629206793918314e-05,
        -99.99999999999868,
        0.0,
        0.0,
        99.99999999999868,
        -1.629206793918314e-05,
        0.0,
        -1.7881393432617188e-05,
        31.247161865234375,
        11.77334976196289,
        1.0
      ],
      "name": "Middle Drawer - Low Poly"
    },
    {
      "mesh": 5,
      "name": "Middle Drawer - Low Poly__0"
    },
    {
      "children": [
        16
      ],
      "matrix": [
        100.0,
        0.0,
        0.0,
        0.0,
        -0.0,
        -1.629206793918314e-05,
        -99.99999999999868,
        0.0,
        0.0,
        99.99999999999868,
        -1.629206793918314e-05,
        0.0,
        -1.7881393432617188e-05,
        47.33526611328125,
        11.77334976196289,
        1.0
      ],
      "name": "Top Drawer - Low Poly"
    },
    {
      "mesh": 6,
      "name": "Top Drawer - Low Poly__0"
    },
    {
      "children": [
        18
      ],
      "matrix": [
        100.0,
        0.0,
        0.0,
        0.0,
        0.0,
        -1.629206793918314e-05,
        -99.99999999999868,
        0.0,
        0.0,
        99.99999999999868,
        -1.629206793918314e-05,
        0.0,
        31.22449493408203,
        168.46705627441406,
        2.263503847643733e-05,
        1.0
      ],
      "name": "Glass Front - Low Poly.001"
    },
    {
      "mesh": 7,
      "name": "Glass Front - Low Poly.001__0"
    }
  ],
  "samplers": [
    {
      "magFilter": 9729,
      "minFilter": 9987,
      "wrapS": 10497,
      "wrapT": 10497
    }
  ],
  "scene": 0,
  "scenes": [
    {
      "name": "Sketchfab_Scene",
      "nodes": [
        0
      ]
    }
  ],
  "textures": [
    {
      "sampler": 0,
      "source": 0
    },
    {
      "sampler": 0,
      "source": 1
    },
    {
      "sampler": 0,
      "source": 2
    },
    {
      "sampler": 0,
      "source": 3
    }
  ]
}
